<svg id="visual" viewBox="0 0 600 900" width="600" height="900" xmlns="http://www.w3.org/2000/svg" xmlns:xlink="http://www.w3.org/1999/xlink" version="1.1"><rect x="0" y="0" width="600" height="900" fill="#f3f3f3"></rect><path d="M0 535L7.7 546.8C15.3 558.7 30.7 582.3 46 597.8C61.3 613.3 76.7 620.7 92 615.7C107.3 610.7 122.7 593.3 138.2 588.3C153.7 583.3 169.3 590.7 184.8 587C200.3 583.3 215.7 568.7 231 574.8C246.3 581 261.7 608 277 636.3C292.3 664.7 307.7 694.3 323 697.2C338.3 700 353.7 676 369 668.8C384.3 661.7 399.7 671.3 415.2 681.2C430.7 691 446.3 701 461.8 704.3C477.3 707.7 492.7 704.3 508 682.2C523.3 660 538.7 619 554 610.7C569.3 602.3 584.7 626.7 592.3 638.8L600 651L600 901L592.3 901C584.7 901 569.3 901 554 901C538.7 901 523.3 901 508 901C492.7 901 477.3 901 461.8 901C446.3 901 430.7 901 415.2 901C399.7 901 384.3 901 369 901C353.7 901 338.3 901 323 901C307.7 901 292.3 901 277 901C261.7 901 246.3 901 231 901C215.7 901 200.3 901 184.8 901C169.3 901 153.7 901 138.2 901C122.7 901 107.3 901 92 901C76.7 901 61.3 901 46 901C30.7 901 15.3 901 7.7 901L0 901Z" fill="#1b2927" stroke-linecap="round" stroke-linejoin="miter"></path></svg>