<svg id="visual" viewBox="0 0 600 900" width="600" height="900" xmlns="http://www.w3.org/2000/svg" xmlns:xlink="http://www.w3.org/1999/xlink" version="1.1"><rect x="0" y="0" width="600" height="900" fill="#f3f3f3"></rect><path d="M0 754L14.3 739.5C28.7 725 57.3 696 85.8 680.3C114.3 664.7 142.7 662.3 171.2 654.8C199.7 647.3 228.3 634.7 257 638.8C285.7 643 314.3 664 343 663C371.7 662 400.3 639 428.8 622.2C457.3 605.3 485.7 594.7 514.2 601.7C542.7 608.7 571.3 633.3 585.7 645.7L600 658L600 901L585.7 901C571.3 901 542.7 901 514.2 901C485.7 901 457.3 901 428.8 901C400.3 901 371.7 901 343 901C314.3 901 285.7 901 257 901C228.3 901 199.7 901 171.2 901C142.7 901 114.3 901 85.8 901C57.3 901 28.7 901 14.3 901L0 901Z" fill="#1b2927" stroke-linecap="round" stroke-linejoin="miter"></path></svg>