<svg id="visual" viewBox="0 0 1920 1080" width="1920" height="1080" xmlns="http://www.w3.org/2000/svg" xmlns:xlink="http://www.w3.org/1999/xlink" version="1.1"><rect x="0" y="0" width="1920" height="1080" fill="#f3f3f3"></rect><path d="M0 642L24.7 656.3C49.3 670.7 98.7 699.3 147.8 718C197 736.7 246 745.3 295.2 739.2C344.3 733 393.7 712 443 706C492.3 700 541.7 709 590.8 704.8C640 700.7 689 683.3 738.2 690.8C787.3 698.3 836.7 730.7 886 764.5C935.3 798.3 984.7 833.7 1034 837C1083.3 840.3 1132.7 811.7 1181.8 803C1231 794.3 1280 805.7 1329.2 817.5C1378.3 829.3 1427.7 841.7 1477 845.7C1526.3 849.7 1575.7 845.3 1624.8 818.7C1674 792 1723 743 1772.2 733C1821.3 723 1870.7 752 1895.3 766.5L1920 781L1920 1081L1895.3 1081C1870.7 1081 1821.3 1081 1772.2 1081C1723 1081 1674 1081 1624.8 1081C1575.7 1081 1526.3 1081 1477 1081C1427.7 1081 1378.3 1081 1329.2 1081C1280 1081 1231 1081 1181.8 1081C1132.7 1081 1083.3 1081 1034 1081C984.7 1081 935.3 1081 886 1081C836.7 1081 787.3 1081 738.2 1081C689 1081 640 1081 590.8 1081C541.7 1081 492.3 1081 443 1081C393.7 1081 344.3 1081 295.2 1081C246 1081 197 1081 147.8 1081C98.7 1081 49.3 1081 24.7 1081L0 1081Z" fill="#1b2927" stroke-linecap="round" stroke-linejoin="miter"></path></svg>