<svg id="visual" viewBox="0 0 1920 1080" width="1920" height="1080" xmlns="http://www.w3.org/2000/svg" xmlns:xlink="http://www.w3.org/1999/xlink" version="1.1"><rect x="0" y="0" width="1920" height="1080" fill="#234a97"></rect><path d="M0 802L32 794.8C64 787.7 128 773.3 192 775.8C256 778.3 320 797.7 384 801.5C448 805.3 512 793.7 576 771.8C640 750 704 718 768 739.5C832 761 896 836 960 865.8C1024 895.7 1088 880.3 1152 869.5C1216 858.7 1280 852.3 1344 829C1408 805.7 1472 765.3 1536 751.8C1600 738.3 1664 751.7 1728 730.2C1792 708.7 1856 652.3 1888 624.2L1920 596L1920 1081L1888 1081C1856 1081 1792 1081 1728 1081C1664 1081 1600 1081 1536 1081C1472 1081 1408 1081 1344 1081C1280 1081 1216 1081 1152 1081C1088 1081 1024 1081 960 1081C896 1081 832 1081 768 1081C704 1081 640 1081 576 1081C512 1081 448 1081 384 1081C320 1081 256 1081 192 1081C128 1081 64 1081 32 1081L0 1081Z" fill="#091016" stroke-linecap="round" stroke-linejoin="miter"></path></svg>