<svg id="visual" viewBox="0 0 1920 1080" width="1920" height="1080" xmlns="http://www.w3.org/2000/svg" xmlns:xlink="http://www.w3.org/1999/xlink" version="1.1"><rect x="0" y="0" width="1920" height="1080" fill="#f3f3f3"></rect><path d="M0 905L45.7 887.5C91.3 870 182.7 835 274.2 816.2C365.7 797.3 457.3 794.7 548.8 785.8C640.3 777 731.7 762 823 767C914.3 772 1005.7 797 1097 795.7C1188.3 794.3 1279.7 766.7 1371.2 746.5C1462.7 726.3 1554.3 713.7 1645.8 722.2C1737.3 730.7 1828.7 760.3 1874.3 775.2L1920 790L1920 1081L1874.3 1081C1828.7 1081 1737.3 1081 1645.8 1081C1554.3 1081 1462.7 1081 1371.2 1081C1279.7 1081 1188.3 1081 1097 1081C1005.7 1081 914.3 1081 823 1081C731.7 1081 640.3 1081 548.8 1081C457.3 1081 365.7 1081 274.2 1081C182.7 1081 91.3 1081 45.7 1081L0 1081Z" fill="#1b2927" stroke-linecap="round" stroke-linejoin="miter"></path></svg>