<svg id="visual" viewBox="0 0 600 900" width="600" height="900" xmlns="http://www.w3.org/2000/svg" xmlns:xlink="http://www.w3.org/1999/xlink" version="1.1"><rect x="0" y="0" width="600" height="900" fill="#234a97"></rect><path d="M0 458L14.3 474.5C28.7 491 57.3 524 85.8 543.2C114.3 562.3 142.7 567.7 171.2 594.5C199.7 621.3 228.3 669.7 257 647.8C285.7 626 314.3 534 343 513C371.7 492 400.3 542 428.8 548.8C457.3 555.7 485.7 519.3 514.2 505.2C542.7 491 571.3 499 585.7 503L600 507L600 901L585.7 901C571.3 901 542.7 901 514.2 901C485.7 901 457.3 901 428.8 901C400.3 901 371.7 901 343 901C314.3 901 285.7 901 257 901C228.3 901 199.7 901 171.2 901C142.7 901 114.3 901 85.8 901C57.3 901 28.7 901 14.3 901L0 901Z" fill="#091016" stroke-linecap="round" stroke-linejoin="miter"></path></svg>